<?xml version="1.0" standalone="no"?>
<!DOCTYPE svg PUBLIC "-//W3C//DTD SVG 20010904//EN"
 "http://www.w3.org/TR/2001/REC-SVG-20010904/DTD/svg10.dtd">
<svg version="1.0" xmlns="http://www.w3.org/2000/svg"
 width="5333.000000pt" height="5333.000000pt" viewBox="0 0 5333.000000 5333.000000"
 preserveAspectRatio="xMidYMid meet">

<g transform="translate(0.000000,5333.000000) scale(0.100000,-0.100000)"
fill="#ffffff" stroke="none">
<path d="M31785 43679 c-712 -35 -1430 -271 -2015 -662 -268 -179 -534 -406
-736 -627 -407 -445 -715 -984 -894 -1561 -126 -408 -183 -794 -183 -1234 1
-605 124 -1142 402 -1745 148 -319 320 -554 731 -1000 378 -410 1042 -1082
3442 -3485 l2596 -2600 -811 -6 c-447 -3 -3523 -7 -6837 -8 -9915 -2 -18669
-23 -19430 -46 -211 -7 -330 -22 -550 -70 -581 -129 -1199 -413 -1635 -752
-905 -705 -1470 -1739 -1574 -2883 -12 -139 -13 -526 -1 -670 73 -875 396
-1653 968 -2335 111 -131 359 -375 499 -489 273 -222 572 -409 888 -554 265
-121 460 -190 830 -293 l249 -69 13703 0 c7537 0 13703 -3 13703 -6 0 -7 -243
-251 -3304 -3329 -2165 -2177 -2538 -2559 -2887 -2957 -276 -314 -394 -478
-510 -710 -333 -663 -491 -1399 -451 -2095 43 -731 257 -1391 647 -1990 277
-424 676 -838 1100 -1140 438 -312 1024 -556 1559 -648 498 -85 1022 -98 1391
-34 578 101 1122 312 1585 614 315 206 789 668 5603 5464 980 977 6595 6610
7376 7401 557 564 834 852 903 938 401 502 715 1188 848 1851 28 140 58 354
65 471 3 52 8 129 11 170 5 79 -9 340 -27 500 -72 650 -319 1317 -694 1880
-156 233 -241 333 -606 710 -1509 1556 -9820 9839 -12379 12336 -901 880 -902
881 -1065 989 -551 364 -1084 565 -1715 644 -144 19 -530 43 -615 39 -16 0
-97 -4 -180 -9z"/>
</g>
</svg>
